<?xml version="1.0" encoding="iso-8859-1"?>
<!-- Generator: Adobe Illustrator 19.0.0, SVG Export Plug-In . SVG Version: 6.00 Build 0)  -->
<svg version="1.1" id="Capa_1" xmlns="http://www.w3.org/2000/svg" xmlns:xlink="http://www.w3.org/1999/xlink" x="0px" y="0px"
	 viewBox="0 0 512.923 512.923" style="enable-background:new 0 0 512.923 512.923;" xml:space="preserve">
<g>
	<g>
		<path d="M295.581,291.323c-2.4-5.6-7.2-10.4-13.6-12.8l3.2-8c1.6-4-0.8-8.8-4.8-10.4c-4-1.6-8.8,0.8-10.4,4.8l-3.2,8
			c-12-4-25.6,2.4-30.4,14.4c-2.4,7.2-1.6,16,3.2,22.4l24,31.2c1.6,2.4,1.6,4.8,0.8,7.2l-2.4,5.6c-1.6,4-6.4,6.4-10.4,4.8l-13.6-4.8
			c-2.4-0.8-4-2.4-4.8-4c-0.8-1.6-0.8-4-0.8-5.6l3.2-8c1.6-4-0.8-8.8-4.8-10.4c-4-1.6-8.8,0.8-10.4,4.8l-3.2,8
			c-2.4,6.4-2.4,12.8,0.8,18.4c2.4,5.6,7.2,9.6,12.8,12l-3.2,8c-1.6,4,0.8,8.8,4.8,10.4c0.8,0,1.6,0.8,3.2,0.8
			c3.2,0,6.4-1.6,7.2-4.8l3.2-8.8c2.4,0.8,5.6,1.6,8,1.6c9.6,0,19.2-6.4,23.2-16l2.4-5.6c2.4-7.2,1.6-16-3.2-22.4l-24-31.2
			c-1.6-2.4-1.6-4.8-0.8-7.2c1.6-4,6.4-6.4,10.4-4.8l13.6,4.8c2.4,0.8,4,2.4,4.8,4c0.8,1.6,0.8,4,0,6.4v2.4c-1.6,4,0.8,8.8,4.8,10.4
			c4,1.6,8.8-0.8,10.4-4.8l0.8-2.4C298.781,303.323,298.781,296.923,295.581,291.323z"/>
	</g>
</g>
<g>
	<g>
		<path d="M142.781,255.323c-6.4-8.8-16-15.2-27.2-17.6c-2.4-0.8-4.8-0.8-7.2-0.8c-20,0-37.6,14.4-40.8,34.4
			c-1.6,11.2,0.8,22.4,7.2,31.2c6.4,8.8,16,15.2,27.2,17.6c2.4,0,4.8,0.8,7.2,0.8c20,0,37.6-14.4,40.8-34.4
			C151.581,275.323,149.181,264.123,142.781,255.323z M135.581,282.523c-2.4,13.6-16,24-29.6,20.8c-8,0-13.6-4-17.6-9.6
			c-4-5.6-5.6-12.8-4-19.2c2.4-12.8,12.8-21.6,25.6-21.6c1.6,0,3.2,0,4.8,0c6.4,1.6,12.8,4.8,16.8,10.4
			C135.581,268.923,137.181,276.123,135.581,282.523z"/>
	</g>
</g>
<g>
	<g>
		<path d="M446.781,319.323c-6.4-8.8-16-15.2-27.2-17.6c-2.4-0.8-4.8-0.8-7.2-0.8c-20,0-37.6,14.4-40.8,34.4
			c-1.6,11.2,0.8,22.4,7.2,31.2c6.4,9.6,16,15.2,27.2,17.6c2.4,0.8,4.8,0.8,7.2,0.8c20,0,37.6-14.4,40.8-34.4
			C455.581,339.323,453.181,328.123,446.781,319.323z M439.581,345.723c-2.4,13.6-16,23.2-29.6,20.8c-6.4-1.6-12.8-4.8-16.8-10.4
			c-4.8-4-6.4-11.2-4.8-18.4c2.4-12.8,12.8-21.6,25.6-21.6c1.6,0,3.2,0,4.8,0c6.4,1.6,12.8,4.8,16.8,10.4
			C439.581,332.123,441.181,339.323,439.581,345.723z"/>
	</g>
</g>
<g>
	<g>
		<path d="M510.781,203.323c-1.6-1.6-3.2-3.2-5.6-3.2l-16-2.4l7.2-81.6c0-2.4-0.8-4-1.6-6.4c-1.6-1.6-3.2-2.4-5.6-2.4h-14.4
			l-16-100.8c-0.8-4-4.8-7.2-8.8-6.4l-442.4,72c-2.4,0-4,1.6-5.6,3.2c-1.6,1.6-1.6,4.8-1.6,6.4l32.8,162.4l-32.8,172.8
			c-0.8,4,1.6,8,5.6,9.6l55.2,13.6c4,0.8,8.8-1.6,9.6-5.6c1.6-4.8-1.6-8.8-5.6-10.4l-47.2-12l49.6-264l427.2,66.4l-53.6,281.6
			l-343.2-65.6c-4-0.8-8.8,2.4-9.6,6.4s2.4,8,6.4,8.8l351.2,67.2c0.8,0,0.8,0,1.6,0c4,0,7.2-2.4,8-6.4l56.8-296.8
			C513.181,207.323,512.381,205.723,510.781,203.323z M473.981,195.323l-412-64c-4-0.8-8,2.4-8.8,6.4l-3.2,16v-41.6l270.4,8
			c4,0,8-4,8-8c0-4.8-3.2-8-8-8.8l-278.4-7.2c-2.4,0-4,0.8-5.6,2.4c-1.6,1.6-2.4,3.2-2.4,5.6l0.8,64.8l-16-81.6l426.4-69.6
			l15.2,89.6l-98.4-3.2c-4.8,0-8,3.2-8,8s3.2,8,8,8l118.4,3.2L473.981,195.323z"/>
	</g>
</g>
<g>
	<g>
		<path d="M273.981,224.923c-5.6-0.8-11.2-1.6-16.8-1.6c-47.2,0-87.2,33.6-95.2,80c-9.6,52.8,25.6,103.2,78.4,112.8
			c5.6,0.8,11.2,1.6,16.8,1.6c47.2,0,87.2-33.6,95.2-80C361.981,284.923,326.781,234.523,273.981,224.923z M336.381,334.523
			c-7.2,39.2-40,67.2-79.2,67.2c-4.8,0-9.6-0.8-14.4-1.6c-44-8-72.8-49.6-65.6-94.4c7.2-39.2,40-67.2,79.2-67.2
			c4.8,0,9.6,0.8,14.4,1.6C314.781,248.123,343.581,289.723,336.381,334.523z"/>
	</g>
</g>
<g>
</g>
<g>
</g>
<g>
</g>
<g>
</g>
<g>
</g>
<g>
</g>
<g>
</g>
<g>
</g>
<g>
</g>
<g>
</g>
<g>
</g>
<g>
</g>
<g>
</g>
<g>
</g>
<g>
</g>
</svg>
