<?xml version="1.0" encoding="iso-8859-1"?>
<!-- Generator: Adobe Illustrator 19.0.0, SVG Export Plug-In . SVG Version: 6.00 Build 0)  -->
<svg version="1.1" id="Capa_1" xmlns="http://www.w3.org/2000/svg" xmlns:xlink="http://www.w3.org/1999/xlink" x="0px" y="0px"
	 viewBox="0 0 507.339 507.339" style="enable-background:new 0 0 507.339 507.339;" xml:space="preserve">
<g>
	<g>
		<g>
			<path d="M396.075,163.653L396.075,163.653l27.648-16.128C363.903,44.761,234.966,5.503,128.027,57.494V18.15h-32v96h96v-32
				h-40.88C241.665,43.753,346.612,78.676,396.075,163.653z"/>
			<path d="M104.027,412.965C29.84,352.714,10.314,247.543,57.931,164.678l-27.744-16c-54.311,94.575-33.761,214.399,48.96,285.472
				h-39.12v32h96v-96h-32V412.965z"/>
			<path d="M439.451,219.238l-67.872,67.888l22.624,22.624l27.2-27.2c-10.669,99.13-94.202,174.364-193.904,174.64v32
				c118.79-0.312,217.334-91.989,226.208-210.448l31.008,31.008l22.624-22.624L439.451,219.238z"/>
		</g>
	</g>
</g>
<g>
</g>
<g>
</g>
<g>
</g>
<g>
</g>
<g>
</g>
<g>
</g>
<g>
</g>
<g>
</g>
<g>
</g>
<g>
</g>
<g>
</g>
<g>
</g>
<g>
</g>
<g>
</g>
<g>
</g>
</svg>
